<svg xmlns="http://www.w3.org/2000/svg" width="96" height="96" viewBox="0 0 96 96">
  <defs>
    <linearGradient id="g" x1="0" y1="0" x2="1" y2="1">
      <stop offset="0%" stop-color="#22a4aa"/>
      <stop offset="100%" stop-color="#167c80"/>
    </linearGradient>
  </defs>
  <rect x="10" y="12" width="76" height="74" rx="20" fill="url(#g)"/>
  <rect x="18" y="24" width="60" height="50" rx="12" fill="#ffffff" opacity="0.96"/>
  <rect x="18" y="24" width="60" height="14" rx="10" fill="#d6f3f4"/>
  <rect x="26" y="14" width="8" height="18" rx="4" fill="#0d5f63"/>
  <rect x="62" y="14" width="8" height="18" rx="4" fill="#0d5f63"/>
  <rect x="28" y="46" width="10" height="10" rx="3" fill="#22a4aa"/>
  <rect x="43" y="46" width="10" height="10" rx="3" fill="#9ad9dc"/>
  <rect x="58" y="46" width="10" height="10" rx="3" fill="#9ad9dc"/>
  <rect x="28" y="60" width="10" height="10" rx="3" fill="#9ad9dc"/>
  <rect x="43" y="60" width="10" height="10" rx="3" fill="#167c80"/>
  <rect x="58" y="60" width="10" height="10" rx="3" fill="#9ad9dc"/>
</svg>
