<svg xmlns="http://www.w3.org/2000/svg" width="96" height="96" viewBox="0 0 96 96">
  <defs>
    <linearGradient id="g" x1="0" y1="0" x2="1" y2="1">
      <stop offset="0%" stop-color="#0a88ff"/>
      <stop offset="100%" stop-color="#0052cc"/>
    </linearGradient>
  </defs>
  <rect x="10" y="18" width="48" height="60" rx="12" fill="#0f6cbd"/>
  <rect x="38" y="12" width="48" height="72" rx="14" fill="url(#g)"/>
  <path d="M46 30h32v36H46z" fill="#e8f2ff"/>
  <path d="M46 30l16 14 16-14" fill="none" stroke="#0f6cbd" stroke-width="4" stroke-linejoin="round"/>
  <circle cx="28" cy="48" r="12" fill="#ffffff"/>
  <path d="M28 40c-4.5 0-8 3.6-8 8s3.5 8 8 8 8-3.6 8-8-3.5-8-8-8zm0 4.5c2 0 3.5 1.5 3.5 3.5S30 51.5 28 51.5 24.5 50 24.5 48s1.5-3.5 3.5-3.5z" fill="#0f6cbd"/>
</svg>
