<svg xmlns="http://www.w3.org/2000/svg" width="96" height="96" viewBox="0 0 96 96">
  <defs>
    <linearGradient id="g" x1="0" y1="0" x2="1" y2="1">
      <stop offset="0%" stop-color="#d99254"/>
      <stop offset="100%" stop-color="#b96a34"/>
    </linearGradient>
  </defs>
  <rect x="12" y="10" width="72" height="76" rx="18" fill="url(#g)"/>
  <path d="M28 22h28l12 12v38a8 8 0 0 1-8 8H28a8 8 0 0 1-8-8V30a8 8 0 0 1 8-8Z" fill="#fff8f2"/>
  <path d="M56 22v10a4 4 0 0 0 4 4h8" fill="none" stroke="#d99254" stroke-width="4" stroke-linecap="round" stroke-linejoin="round"/>
  <rect x="30" y="42" width="28" height="6" rx="3" fill="#d9a174"/>
  <rect x="30" y="54" width="36" height="6" rx="3" fill="#efc8a7"/>
  <circle cx="36" cy="67" r="7" fill="#b96a34"/>
  <path d="M36 62.5v9" stroke="#fff8f2" stroke-width="3.5" stroke-linecap="round"/>
  <path d="M32.5 66h7" stroke="#fff8f2" stroke-width="3.5" stroke-linecap="round"/>
</svg>
