<svg xmlns="http://www.w3.org/2000/svg" width="96" height="96" viewBox="0 0 96 96">
  <defs>
    <linearGradient id="bg" x1="0" y1="0" x2="1" y2="1">
      <stop offset="0%" stop-color="#3a3d42"/>
      <stop offset="100%" stop-color="#111318"/>
    </linearGradient>
    <linearGradient id="pink" x1="0" y1="0" x2="1" y2="1">
      <stop offset="0%" stop-color="#ffd1dc"/>
      <stop offset="100%" stop-color="#f59bb4"/>
    </linearGradient>
  </defs>
  <circle cx="48" cy="50" r="37" fill="url(#bg)"/>
  <path d="M21 35 16 14l20 12Z" fill="#17191e"/>
  <path d="M75 35 80 14 60 26Z" fill="#17191e"/>
  <path d="M23 30 19 20l10 7Z" fill="#f3a6bb" opacity="0.82"/>
  <path d="M73 30 77 20l-10 7Z" fill="#f3a6bb" opacity="0.82"/>
  <path d="M34 30c2-10 9-16 14-16s12 6 14 16c-5-2-10-3-14-3s-9 1-14 3Z" fill="#f7f8f8"/>
  <path d="M29 49c0-12 8-21 19-21s19 9 19 21c0 15-8 27-19 27S29 64 29 49Z" fill="#f7f8f8"/>
  <path d="M34 50c0-5 4-9 9-9h10c5 0 9 4 9 9 0 10-6 18-14 18s-14-8-14-18Z" fill="#ffffff"/>
  <ellipse cx="35" cy="45" rx="4.3" ry="5.2" fill="#15171b"/>
  <ellipse cx="61" cy="45" rx="4.3" ry="5.2" fill="#15171b"/>
  <circle cx="36.6" cy="43.2" r="1.2" fill="#ffffff"/>
  <circle cx="62.6" cy="43.2" r="1.2" fill="#ffffff"/>
  <path d="M45 53c1.6-2 4.4-2 6 0-1 2.3-5 2.3-6 0Z" fill="url(#pink)"/>
  <path d="M48 55v4" stroke="#1b1d22" stroke-width="2.3" stroke-linecap="round"/>
  <path d="M42 61c2 3 5 4 6 0 1 4 4 3 6 0" fill="none" stroke="#1b1d22" stroke-width="2.3" stroke-linecap="round"/>
  <path d="M23 52h16M22 59h17M57 52h16M57 59h17" stroke="#25282e" stroke-width="2.2" stroke-linecap="round"/>
  <path d="M38 76 48 67l10 9-10 8Z" fill="#202329"/>
  <path d="M31 73c5-7 12-7 17-1-5 4-11 5-17 1Z" fill="#202329"/>
  <path d="M65 73c-5-7-12-7-17-1 5 4 11 5 17 1Z" fill="#202329"/>
  <circle cx="48" cy="75" r="3.4" fill="#f7f8f8"/>
</svg>
