<svg xmlns="http://www.w3.org/2000/svg" width="96" height="96" viewBox="0 0 96 96">
  <defs>
    <linearGradient id="g" x1="0" y1="0" x2="1" y2="1">
      <stop offset="0%" stop-color="#16b695"/>
      <stop offset="100%" stop-color="#0e8f73"/>
    </linearGradient>
  </defs>
  <rect x="10" y="10" width="76" height="76" rx="20" fill="url(#g)"/>
  <path d="M29 27h27l11 11v29a8 8 0 0 1-8 8H29a8 8 0 0 1-8-8V35a8 8 0 0 1 8-8Z" fill="#f1fffb"/>
  <path d="M56 27v9a4 4 0 0 0 4 4h7" fill="none" stroke="#49c9ae" stroke-width="4" stroke-linecap="round" stroke-linejoin="round"/>
  <path d="M32 49h25" stroke="#8ddfce" stroke-width="5" stroke-linecap="round"/>
  <path d="M32 61h16" stroke="#b7eee3" stroke-width="5" stroke-linecap="round"/>
  <path d="M51 57h21" stroke="#0e8f73" stroke-width="6" stroke-linecap="round"/>
  <path d="M65 49l8 8-8 8" fill="none" stroke="#0e8f73" stroke-width="6" stroke-linecap="round" stroke-linejoin="round"/>
  <path d="M34 41c3.8-7.3 12.4-7.3 16.2 0" fill="none" stroke="#0e8f73" stroke-width="4" stroke-linecap="round"/>
  <path d="M44 35l6 6-8 1" fill="none" stroke="#0e8f73" stroke-width="4" stroke-linecap="round" stroke-linejoin="round"/>
</svg>
